<svg xmlns="http://www.w3.org/2000/svg" width="1024" height="239" viewBox="0 0 1024 239" version="1.1">
	<path d="M 154 18.076 C 132.945 22.633, 119.711 29.478, 106.209 42.794 C 95.483 53.372, 86.511 68.960, 82.491 84 C 80.239 92.423, 79.329 116.841, 80.950 125.335 C 83.545 138.939, 90.371 154.570, 97.834 164 C 106.949 175.518, 121.935 186.807, 134.277 191.452 C 143.508 194.927, 162.323 198.298, 169 197.673 C 194.191 195.317, 213.003 187.046, 228.623 171.459 C 237.883 162.218, 247.565 145.640, 249.564 135.604 C 249.772 134.560, 250.377 132.310, 250.908 130.604 C 252.689 124.886, 254 113.206, 254 103.058 L 254 93 227.500 93 L 201 93 201 104 L 201 115 213.500 115 L 226 115 226 118.806 C 226 125.964, 222.146 134.894, 216.598 140.592 C 205.111 152.389, 189.057 150.934, 182.486 137.500 C 180.662 133.771, 180.552 131.655, 180.863 106.250 L 181.196 79 168.098 79 L 155 79 155 109.818 C 155 143.960, 155.406 146.932, 161.259 155.602 C 163.220 158.507, 166.474 161.549, 169.500 163.305 C 172.250 164.901, 174.650 166.611, 174.833 167.104 C 175.017 167.597, 176.043 168, 177.115 168 C 179.444 168, 180.820 170.875, 179.023 171.986 C 176.696 173.424, 158.745 173.110, 152.500 171.522 C 149.200 170.682, 142.775 168.134, 138.222 165.858 C 123.270 158.383, 111.118 142.680, 106.418 124.758 C 104.170 116.187, 104.107 99.357, 106.293 91.207 C 111.046 73.483, 122.743 58.414, 138.193 50.110 C 160.899 37.908, 185.874 40.024, 207.474 55.981 L 212.915 60 229.007 60 C 243.243 60, 244.999 59.821, 244.233 58.451 C 241.645 53.828, 229.706 40.640, 224.035 36.143 C 215.905 29.694, 202.017 22.770, 191.500 19.923 C 182.417 17.463, 161.574 16.436, 154 18.076 M 316.357 25.903 C 306.966 28.212, 295.730 35.199, 290.856 41.759 C 282.636 52.824, 280.096 60.470, 279.317 76.500 C 278.814 86.846, 279.036 89.672, 280.927 97 C 286.014 116.712, 299.954 129.600, 320.421 133.516 C 330.357 135.417, 337.182 135.392, 345.688 133.423 C 358.745 130.400, 370.926 121.244, 376.966 109.912 L 380.256 103.739 380.171 88.825 L 380.086 73.911 355.043 73.408 L 330 72.906 330 81.953 L 330 91 343.500 91 C 356.836 91, 357 91.027, 356.990 93.250 C 356.985 94.487, 355.893 97.836, 354.564 100.690 C 348.956 112.735, 332.566 117.418, 319.267 110.776 C 307.098 104.699, 300.892 88.352, 303.892 70.277 C 308.089 44.985, 334.877 35.475, 352.057 53.178 L 356.031 57.273 365.265 53.628 C 370.344 51.624, 375.036 49.987, 375.691 49.992 C 378.347 50.010, 377.794 47.918, 373.811 42.880 C 368.196 35.776, 365.752 33.797, 357.500 29.674 C 345.762 23.809, 330.548 22.414, 316.357 25.903 M 427 27.165 C 427 27.806, 425.586 31.968, 423.858 36.415 C 419.814 46.824, 415.096 59.053, 410.516 71 C 405.830 83.224, 400.090 97.839, 392.871 115.936 C 389.703 123.876, 387.314 130.699, 387.561 131.099 C 387.809 131.500, 393.008 131.753, 399.116 131.663 L 410.220 131.500 412.004 126.500 C 412.986 123.750, 414.384 119.362, 415.113 116.750 L 416.437 112 439.600 112 L 462.764 112 465.433 120.750 C 466.901 125.563, 468.290 130.063, 468.520 130.750 C 469.017 132.240, 490.536 132.560, 491.443 131.092 C 492.003 130.186, 488.575 120.878, 476.495 90.500 C 470.678 75.872, 462.446 54.474, 456.296 38 C 454.962 34.425, 453.405 30.262, 452.837 28.750 L 451.804 26 439.402 26 C 430.630 26, 427 26.341, 427 27.165 M 508 79.090 L 508 132.180 537.250 131.702 C 567.303 131.211, 572.351 130.613, 580 126.634 C 589.157 121.870, 594.789 110.640, 593.753 99.212 C 592.881 89.591, 587.910 82.256, 579.677 78.442 L 574.772 76.169 577.738 74.636 C 581.467 72.707, 586.825 66.663, 588.625 62.355 C 591.474 55.538, 589.500 44.145, 584.287 37.310 C 580.747 32.668, 573.146 28.313, 566.413 27.068 C 563.234 26.481, 548.790 26, 534.316 26 L 508 26 508 79.090 M 614 78.500 L 614 131 625.750 131.001 L 637.500 131.001 637.500 113.906 L 637.500 96.811 645.977 96.810 L 654.454 96.810 656.752 100.155 C 658.015 101.995, 662.252 109.800, 666.167 117.500 L 673.284 131.500 685.642 131.500 C 692.439 131.500, 698 131.089, 698 130.587 C 698 129.862, 689.822 114.863, 684.500 105.826 C 678.924 96.358, 677 92.964, 677 92.595 C 677 92.355, 678.325 91.868, 679.944 91.512 C 681.564 91.157, 684.996 89.256, 687.572 87.289 C 696.688 80.329, 701.097 64.650, 697.585 51.677 C 695.022 42.206, 690.128 36.319, 681 31.726 C 674.005 28.206, 672.624 27.888, 660.500 27.005 C 653.350 26.484, 639.962 26.045, 630.750 26.029 L 614 26 614 78.500 M 720 78.500 L 720 131 731 131 L 742 131 742 78.500 L 742 26 731 26 L 720 26 720 78.500 M 768 79 L 768 132 804.500 132 L 841 132 841 121.500 L 841 111 815.500 111 L 790 111 790 100 L 790 89 813 89 L 836 89 836 78.500 L 836 68 813 68 L 790 68 790 57.017 L 790 46.035 814.750 45.767 L 839.500 45.500 839.786 35.750 L 840.072 26 804.036 26 L 768 26 768 79 M 861.732 78.750 L 861.964 131.500 897.482 131.763 L 933 132.025 933 121.513 L 933 111 909 111 L 885 111 885 68.500 L 885 26 873.250 26 L 861.500 26 861.732 78.750 M 530 56.442 L 530 68.144 545.085 67.822 L 560.169 67.500 563.085 64.234 C 566.433 60.483, 567.015 54.894, 564.439 51.217 C 561.368 46.832, 557.347 45.690, 543.250 45.200 L 530 44.739 530 56.442 M 637.413 46.917 C 637.186 47.146, 637 54.043, 637 62.244 L 637 77.155 650.250 76.827 C 665.930 76.440, 670.104 74.959, 673.725 68.500 C 676.384 63.756, 676.527 59.748, 674.202 55.088 C 670.874 48.418, 668.550 47.558, 652.343 47 C 644.358 46.725, 637.640 46.688, 637.413 46.917 M 437.729 58.758 C 436.868 60.816, 434.054 67.675, 431.477 74 C 428.899 80.325, 426.163 86.807, 425.395 88.404 C 424.628 90.001, 424 91.463, 424 91.654 C 424 91.844, 430.975 92, 439.500 92 C 448.025 92, 455 91.856, 455 91.679 C 455 91.503, 453.178 87.116, 450.951 81.929 C 448.723 76.743, 445.753 69.652, 444.351 66.171 C 442.948 62.691, 441.237 58.757, 440.548 57.430 L 439.296 55.017 437.729 58.758 M 530 98.848 L 530 110.695 542.250 111.350 C 561.977 112.404, 570 108.858, 570 99.084 C 570 95.038, 565.166 89.666, 560.182 88.173 C 558.029 87.528, 550.358 87, 543.134 87 L 530 87 530 98.848 M 828.856 163.281 C 821.044 165.985, 814.990 169.951, 811.085 174.922 C 807.901 178.974, 804.620 185, 805.597 185 C 805.953 185, 805.744 185.604, 805.131 186.342 C 804.428 187.189, 804.131 191.337, 804.325 197.592 C 804.587 206.028, 805.026 208.243, 807.282 212.500 C 809.950 217.534, 816.286 225, 817.891 225 C 818.366 225, 819.261 225.610, 819.880 226.355 C 820.498 227.100, 824.454 228.734, 828.671 229.986 C 851.994 236.910, 873.987 222.780, 875.688 199.780 C 876.749 185.450, 869.349 171.452, 858 166.317 C 845.993 160.884, 838.144 160.067, 828.856 163.281 M 324.245 185.750 C 324.774 213.498, 325.478 216.574, 333.036 224.132 C 338.263 229.359, 342.069 230.860, 352.237 231.706 C 364.698 232.743, 376.149 227.587, 380.513 218.973 C 384.008 212.078, 384.984 203.965, 384.992 181.750 L 385 162 377.549 162 L 370.098 162 369.799 187.078 L 369.500 212.157 365.765 215.578 C 362.263 218.786, 361.596 219, 355.092 219 C 348.636 219, 347.934 218.780, 344.990 215.836 C 343.250 214.096, 341.453 211.690, 340.997 210.491 C 340.541 209.291, 339.840 197.890, 339.440 185.155 L 338.713 162 331.253 162 L 323.792 162 324.245 185.750 M 423 196.500 L 423 231 430 231 L 437 231 437 219 L 437 207 443.750 207.006 C 450.040 207.012, 450.612 207.200, 452.147 209.756 C 453.053 211.265, 456.306 216.550, 459.376 221.500 L 464.959 230.500 473.066 231 C 477.526 231.275, 481.326 231.346, 481.512 231.158 C 481.698 230.970, 479.696 227.595, 477.062 223.658 C 474.429 219.721, 471.535 215.150, 470.632 213.500 C 469.729 211.850, 468.281 209.515, 467.414 208.312 C 465.897 206.206, 465.987 206.047, 469.793 204.106 C 482.174 197.790, 484.707 182.357, 475.310 170.497 C 473.068 167.667, 470.924 166.450, 464.698 164.475 C 457.672 162.246, 455.213 162, 439.948 162 L 423 162 423 196.500 M 519 196.572 L 519 231.145 539.750 230.822 C 558.735 230.527, 560.840 230.317, 564.500 228.347 C 572.631 223.971, 576.598 216.607, 574.898 209.042 C 573.653 203.500, 571.688 200.685, 567.482 198.420 C 563.392 196.218, 563.260 195.802, 566.231 194.487 C 569.440 193.067, 572.964 186.241, 572.984 181.407 C 573.008 175.245, 569.281 169.018, 563.932 166.283 C 557.477 162.984, 550.571 162, 533.864 162 L 519 162 519 196.572 M 632.055 164.250 C 628.056 174.224, 623.453 185.431, 621.427 190.125 C 620.092 193.219, 619 196.018, 619 196.345 C 619 196.673, 617.927 199.317, 616.616 202.220 C 615.305 205.124, 612.540 211.775, 610.471 217 C 608.403 222.225, 606.325 226.927, 605.855 227.450 C 605.385 227.972, 604.999 229.097, 604.998 229.950 C 604.996 231.237, 606.227 231.446, 612.265 231.179 L 619.535 230.858 622.469 223.904 L 625.403 216.950 640.361 217.225 L 655.318 217.500 658.073 224 L 660.827 230.500 668.416 230.792 L 676.004 231.084 674.094 226.292 C 673.044 223.656, 669.443 215.087, 666.092 207.248 C 662.742 199.409, 660 192.826, 660 192.619 C 660 192.411, 658.787 189.600, 657.303 186.371 C 655.820 183.142, 654.527 179.825, 654.430 179 C 654.332 178.175, 653.076 174.912, 651.639 171.750 C 650.201 168.588, 649.260 166, 649.548 166 C 649.835 166, 649.589 165.100, 649 164 C 648.076 162.273, 646.906 162, 640.443 162 C 633.614 162, 632.878 162.197, 632.055 164.250 M 707 196.500 L 707 231 714.500 231 L 722 231 722 210.500 C 722 199.225, 722.337 190.006, 722.750 190.013 C 723.163 190.020, 724.400 191.340, 725.500 192.946 C 726.600 194.552, 732 201.225, 737.500 207.776 C 743 214.326, 749.525 222.209, 752 225.294 L 756.500 230.903 762.750 230.951 L 769 231 769 196.500 L 769 162 761.946 162 L 754.892 162 755.196 184.001 C 755.363 196.102, 755.454 206.002, 755.398 206.001 C 755.341 206, 753.144 203.262, 750.514 199.915 C 747.885 196.568, 744.975 193.080, 744.048 192.165 C 742.042 190.183, 722.098 166.611, 720.128 163.893 C 719.050 162.406, 717.495 162, 712.878 162 L 707 162 707 196.500 M 834.994 174.891 C 824.155 178.377, 816.901 189.255, 818.583 199.500 C 820.005 208.160, 827.207 216.853, 834.679 218.928 C 839.751 220.336, 840.806 220.285, 846.460 218.359 C 852.744 216.218, 858.195 210.551, 860.331 203.939 C 862.460 197.345, 862.431 196.226, 859.951 189.598 C 856.099 179.303, 843.803 172.057, 834.994 174.891 M 437 184.381 L 437 194 447.750 193.985 C 459.491 193.969, 462.757 192.990, 464.719 188.900 C 466.338 185.523, 464.685 179.444, 461.706 177.823 C 458.882 176.287, 457.447 176.057, 446.250 175.347 L 437 174.761 437 184.381 M 532.750 175.582 C 532.337 175.995, 532 179.408, 532 183.167 L 532 190 543.045 190 C 553.439 190, 554.236 189.855, 556.545 187.545 C 559.725 184.366, 559.639 182.748, 556.084 178.766 C 553.216 175.555, 553.003 175.494, 543.334 175.165 C 537.925 174.981, 533.163 175.168, 532.750 175.582 M 639.603 181.833 C 639.275 182.364, 637.008 187.569, 634.565 193.399 L 630.124 204 640.169 204 C 647.813 204, 650.091 203.701, 649.699 202.750 C 645.953 193.660, 640.738 181.430, 640.502 181.183 C 640.336 181.009, 639.932 181.302, 639.603 181.833 M 532 211 L 532 219 541.980 219 C 553.867 219, 559.357 217.284, 560.810 213.114 C 562.018 209.650, 559.912 205.297, 556.379 203.954 C 554.999 203.429, 548.949 203, 542.935 203 L 532 203 532 211" stroke="none" fill="#ffffff" fill-rule="evenodd"/>
</svg>